<svg version="1.1" xmlns="http://www.w3.org/2000/svg" viewBox="0 0 402.5 268.33333333333337" width="805" height="536.6666666666667">
  <!-- svg-source:excalidraw -->
  
  <defs>
    <style>
      @font-face {
        font-family: "Virgil";
        src: url("https://excalidraw.com/Virgil.woff2");
      }
      @font-face {
        font-family: "Cascadia";
        src: url("https://excalidraw.com/Cascadia.woff2");
      }
    </style>
  </defs>
  <rect x="0" y="0" width="402.5" height="268.33333333333337" fill="#ffffff"></rect><g stroke-linecap="round" transform="translate(10 10) rotate(0 59.166666666666686 41.25)"><path d="M0.39 0.74 C25.62 0.66, 48.07 -1.63, 119.06 0.63 M0.35 -0.59 C40.15 -1.79, 80.48 -1.43, 119.21 0.65 M118.89 1.18 C115.71 29.78, 117.18 65.39, 117.94 84.44 M118.02 -0.26 C119.55 32.14, 119.29 65.33, 117.4 82.27 M119.53 82.81 C83.61 80.69, 52.56 79.84, -1.44 83.42 M119.3 83.36 C84.56 81.78, 53.02 82.68, -0.21 82.58 M1.08 82.57 C-1.25 66.91, 0.42 48.23, 1.18 -0.87 M0.08 82.66 C0.53 55.15, -0.14 29.16, 0.42 -0.27" stroke="#000000" stroke-width="1" fill="none"></path></g><g stroke-linecap="round"><g transform="translate(131.66666666666663 49.166666666666686) rotate(0 76.11090047258415 21.62952409901655)"><path d="M0.94 0.08 C26.46 7.35, 127.18 35.36, 152.24 42.59 M-0.02 -0.92 C25.39 6.64, 125.56 37.08, 151.16 44.18" stroke="#000000" stroke-width="1" fill="none"></path></g><g transform="translate(131.66666666666663 49.166666666666686) rotate(0 76.11090047258415 21.62952409901655)"><path d="M121.36 45.69 C128.2 43.47, 136.49 43.23, 152.24 44.25 M120.73 46.71 C128.9 45.71, 137.81 45.41, 151.24 44.34" stroke="#000000" stroke-width="1" fill="none"></path></g><g transform="translate(131.66666666666663 49.166666666666686) rotate(0 76.11090047258415 21.62952409901655)"><path d="M127.12 25.99 C132.49 28.3, 139.46 32.53, 152.24 44.25 M126.49 27.01 C133.2 31.39, 140.55 36.42, 151.24 44.34" stroke="#000000" stroke-width="1" fill="none"></path></g></g><g stroke-linecap="round" transform="translate(283.33333333333326 64.16666666666669) rotate(0 54.58333333333337 41.66666666666666)"><path d="M-0.89 -0.64 C34.33 -2.46, 67.77 -0.04, 110.09 2 M0.39 0.47 C40.56 0.07, 83.36 1.2, 108.7 -0.89 M111.03 0.71 C109.62 23.04, 110.07 45.95, 107.61 85.26 M108.73 -0.7 C109.79 21.55, 109.53 45.5, 108.44 82.67 M108.69 83.1 C86.26 82.51, 65.6 83.19, -0.34 81.93 M110.14 82.93 C76.24 84.34, 41.45 84.28, 0.11 83.85 M-0.05 83.98 C1.32 66.02, 1.02 48.2, 1.77 -0.76 M-0.15 83.11 C-0.28 50.59, 0.21 17.98, 0.52 0.11" stroke="#000000" stroke-width="1" fill="none"></path></g><g stroke-linecap="round"><g transform="translate(130.83333333333337 185) rotate(0 74.99097746238107 -28.26024673407278)"><path d="M-1.19 0.63 C24.15 -8.91, 125.78 -47.69, 151.17 -57.15 M0.39 -0.08 C25.74 -9.48, 125.74 -46.18, 150.84 -55.87" stroke="#000000" stroke-width="1" fill="none"></path></g><g transform="translate(130.83333333333337 185) rotate(0 74.99097746238107 -28.26024673407278)"><path d="M129.11 -34.41 C132.45 -38.7, 139.37 -45, 151.59 -55.65 M129.05 -36.39 C136.55 -42.7, 144.7 -49.71, 151.52 -54.99" stroke="#000000" stroke-width="1" fill="none"></path></g><g transform="translate(130.83333333333337 185) rotate(0 74.99097746238107 -28.26024673407278)"><path d="M121.9 -53.62 C126.92 -53.42, 135.49 -55.31, 151.59 -55.65 M121.84 -55.6 C131.72 -55.11, 142.41 -55.36, 151.52 -54.99" stroke="#000000" stroke-width="1" fill="none"></path></g></g><g stroke-linecap="round" transform="translate(10.833333333333371 149.16666666666669) rotate(0 59.16666666666663 38.75000000000003)"><path d="M-0.09 1.22 C34.05 -0.72, 66.79 1.15, 119.09 0.81 M-0.8 -0.51 C34.36 0.85, 68.12 0.94, 118.83 0.4 M117.7 -0.46 C117.69 17.39, 119.18 31.78, 119.89 76.33 M119.09 -0.48 C118.67 22.71, 117.99 44.08, 117.77 78.36 M117.48 78.98 C85.66 78.39, 52.1 78.44, -1.43 76.1 M118.01 77.61 C94.66 78.25, 69.13 78.73, -0.57 76.67 M1.84 78.07 C0.35 53.72, -1.88 31.96, -0.99 -0.42 M0.78 76.51 C0.66 51.93, 0.87 24.74, -0.41 -0.98" stroke="#000000" stroke-width="1" fill="none"></path></g><g stroke-linecap="round" transform="translate(299.16666666666674 167.50000000000017) rotate(0 35.833333333333314 27.083333333333286)"><path d="M26.22 0.24 C33.18 -1.74, 43.43 -0.45, 50.56 2.09 C57.69 4.62, 65.59 10.25, 69.02 15.45 C72.44 20.66, 73.1 27.82, 71.12 33.33 C69.13 38.84, 63.63 45.22, 57.12 48.52 C50.62 51.82, 39.88 53.32, 32.08 53.11 C24.28 52.9, 15.7 51.16, 10.32 47.24 C4.94 43.32, 0.39 35.62, -0.18 29.61 C-0.75 23.61, 1.92 16.07, 6.91 11.2 C11.9 6.33, 25.18 2.28, 29.77 0.37 C34.35 -1.54, 34.17 -0.85, 34.41 -0.28 M28.41 0.54 C35.02 -0.93, 44.47 1.48, 51.07 4.08 C57.67 6.67, 64.75 11.04, 68.03 16.1 C71.3 21.16, 72.66 28.65, 70.71 34.46 C68.75 40.26, 63.04 47.56, 56.27 50.92 C49.51 54.28, 37.7 55.34, 30.09 54.62 C22.49 53.89, 15.75 51, 10.66 46.56 C5.56 42.12, 0.35 34.11, -0.48 27.98 C-1.31 21.85, 0.99 14.58, 5.67 9.79 C10.34 5, 24.07 0.43, 27.57 -0.75 C31.08 -1.94, 26.33 2.07, 26.7 2.69" stroke="#000000" stroke-width="1" fill="none"></path></g><g stroke-linecap="round" transform="translate(299.16666666666674 185.83333333333337) rotate(0 35.833333333333314 27.083333333333314)"><path d="M27.87 0.78 C35.11 -0.9, 46.39 -0.37, 53.13 2.28 C59.88 4.94, 65.45 11.31, 68.35 16.7 C71.25 22.09, 72.73 29.04, 70.54 34.6 C68.35 40.16, 61.95 46.8, 55.21 50.08 C48.46 53.36, 37.7 54.96, 30.06 54.27 C22.41 53.59, 14.33 50.36, 9.33 45.96 C4.33 41.56, 0.47 33.82, 0.07 27.87 C-0.32 21.92, 1.15 14.91, 6.96 10.24 C12.77 5.58, 28.97 1.49, 34.94 -0.1 C40.91 -1.7, 42.68 0.13, 42.77 0.68 M41.37 -0.66 C49.1 -0.2, 58.2 5.17, 63.4 9.47 C68.6 13.78, 72.37 19.41, 72.58 25.16 C72.79 30.91, 69.43 39.37, 64.63 44 C59.83 48.63, 51.16 51.52, 43.79 52.92 C36.41 54.33, 27.27 55.06, 20.38 52.41 C13.49 49.76, 5.57 42.72, 2.44 37.03 C-0.7 31.34, -0.77 23.95, 1.56 18.26 C3.9 12.56, 9.91 5.87, 16.43 2.85 C22.94 -0.16, 36.66 0.43, 40.66 0.15 C44.66 -0.12, 40.62 0.71, 40.41 1.21" stroke="#000000" stroke-width="1" fill="none"></path></g><g stroke-linecap="round" transform="translate(294.9999999999999 212.5000000000001) rotate(0 39.583333333333314 22.91666666666663)"><path d="M38.35 0.18 C45.82 -0.41, 56.36 0.73, 62.96 3.31 C69.55 5.88, 75.45 11.11, 77.91 15.61 C80.36 20.11, 80.26 25.95, 77.7 30.3 C75.15 34.65, 68.86 39.27, 62.58 41.73 C56.29 44.18, 47.41 45.09, 39.99 45.04 C32.56 44.99, 24.44 43.87, 18.04 41.43 C11.63 38.99, 4.2 34.51, 1.54 30.39 C-1.13 26.26, -0.22 21.04, 2.03 16.67 C4.28 12.31, 8.22 7.04, 15.06 4.21 C21.9 1.37, 38.13 0.24, 43.07 -0.35 C48 -0.94, 44.79 0.11, 44.68 0.67 M51.22 0.12 C58.59 1.19, 66.63 5.91, 71.31 9.29 C76 12.67, 78.88 15.94, 79.33 20.41 C79.77 24.88, 78.21 32.24, 73.99 36.1 C69.76 39.96, 61.58 41.96, 53.98 43.56 C46.39 45.17, 35.68 46.7, 28.41 45.71 C21.13 44.73, 14.97 41.28, 10.32 37.65 C5.68 34.01, 1.43 28.43, 0.53 23.9 C-0.36 19.38, 0.6 14.12, 4.95 10.5 C9.3 6.87, 18.94 3.99, 26.63 2.15 C34.32 0.3, 47.41 -0.44, 51.07 -0.56 C54.73 -0.69, 49.17 0.61, 48.57 1.4" stroke="#000000" stroke-width="1" fill="none"></path></g><g transform="translate(43.66666666666663 38.25) rotate(0 25.5 13)"><text x="25.5" y="18" font-family="Virgil, Segoe UI Emoji" font-size="20px" fill="#000000" text-anchor="middle" style="white-space: pre;" direction="ltr">lorem</text></g><g transform="translate(44.5 174.91666666666674) rotate(0 25.5 13)"><text x="25.5" y="18" font-family="Virgil, Segoe UI Emoji" font-size="20px" fill="#000000" text-anchor="middle" style="white-space: pre;" direction="ltr">ipsum</text></g><g transform="translate(313.41666666666663 92.83333333333337) rotate(0 24.5 13)"><text x="24.5" y="18" font-family="Virgil, Segoe UI Emoji" font-size="20px" fill="#000000" text-anchor="middle" style="white-space: pre;" direction="ltr">dolor</text></g></svg>